# File created by Blade
# Date/Time:  Fri Jan 16 14:33:41 2015
# Frame Rate: 120.000 fps
#------------------------------------------------------
:FULLY-SPECIFIED
:DEGREES
3383
root 19.095071 35.649992 -25.355686 -170.959077 -6.576607 -179.555618
Spine -15.912089 -2.496123 -2.124957
Head -0.374099 -12.530916 14.554841
LeftShoulder -10.007222 -24.151502 26.071352
LeftArm -2.342415 1.663463 -8.538110
LeftForeArm 10.983819 -0.000000 -2.445720
LeftHand -4.687021 -0.000000 -11.964314
LeftHandThumb1 -26.253704 0.000000 33.147579
RightShoulder -10.199199 -14.376380 -13.720205
RightArm 0.295051 46.298697 18.670466
RightForeArm -32.861033 -0.000000 4.343591
RightHand -7.356611 -0.000000 3.655903
RightHandThumb1 -24.326973 -0.000000 -32.862282
LeftUpLeg 0.674605 6.417601 0.735407
LeftLeg -6.117248 -0.000000 0.000000
LeftFoot -20.412159 24.412533 -16.553327
LeftToeBase 24.082229 -0.000000 -0.000000
RightUpLeg 0.869211 -13.949331 3.006500
RightLeg -4.458591 -0.000000 0.000000
RightFoot -22.434104 -25.531252 18.730366
RightToeBase 21.485116 -0.000000 -0.000000
3384
root 19.097790 35.652832 -25.356123 -170.972093 -6.642860 -179.565036
Spine -15.841025 -2.520647 -2.217732
Head -0.726901 -12.637408 15.083412
LeftShoulder -9.856505 -24.125554 26.119843
LeftArm -2.492594 1.755561 -8.448333
LeftForeArm 10.915630 -0.000000 -2.447720
LeftHand -4.724005 -0.000000 -11.986024
LeftHandThumb1 -26.253704 0.000000 33.147579
RightShoulder -10.165036 -14.550369 -13.679121
RightArm 0.070589 46.246381 18.494479
RightForeArm -32.845855 -0.000000 4.251250
RightHand -7.291384 -0.000000 3.603193
RightHandThumb1 -24.326973 -0.000000 -32.862282
LeftUpLeg 0.679528 6.392494 0.737409
LeftLeg -6.120748 -0.000000 0.000000
LeftFoot -20.375074 24.373180 -16.587296
LeftToeBase 24.070979 -0.000000 -0.000000
RightUpLeg 0.890789 -13.979742 3.005673
RightLeg -4.462359 -0.000000 0.000000
RightFoot -22.442070 -25.544639 18.772723
RightToeBase 21.564615 -0.000000 -0.000000
3385
root 19.099325 35.655914 -25.356223 -170.978518 -6.707293 -179.575304
Spine -15.781902 -2.547878 -2.288086
Head -1.050366 -12.740968 15.525619
LeftShoulder -9.736250 -24.142471 26.136091
LeftArm -2.618166 1.818830 -8.331047
LeftForeArm 10.921349 -0.000000 -2.452308
LeftHand -4.639327 -0.000000 -11.915010
LeftHandThumb1 -26.253704 0.000000 33.147579
RightShoulder -10.124382 -14.621331 -13.671473
RightArm -0.197690 46.150079 18.303998
RightForeArm -32.829720 0.000000 4.218928
RightHand -7.266351 -0.000000 3.397350
RightHandThumb1 -24.326973 -0.000000 -32.862282
LeftUpLeg 0.672986 6.376759 0.736487
LeftLeg -6.119142 -0.000000 0.000000
LeftFoot -20.333981 24.328827 -16.623654
LeftToeBase 24.192937 -0.000000 -0.000000
RightUpLeg 0.895783 -14.024781 3.004165
RightLeg -4.447533 -0.000000 0.000000
RightFoot -22.454675 -25.541164 18.849266
RightToeBase 21.482706 -0.000000 -0.000000
3386
root 19.101675 35.658013 -25.355627 -170.980677 -6.781055 -179.579039
Spine -15.735386 -2.575277 -2.344600
Head -1.311145 -12.851495 15.898319
LeftShoulder -9.640423 -24.185938 26.123897
LeftArm -2.693089 1.902127 -8.200496
LeftForeArm 10.870766 -0.000000 -2.422177
LeftHand -4.695467 -0.000000 -11.741496
LeftHandThumb1 -26.253704 0.000000 33.147579
RightShoulder -10.071216 -14.661641 -13.644088
RightArm -0.539792 45.920726 18.021703
RightForeArm -32.694277 -0.000000 4.245673
RightHand -7.326551 -0.000000 3.335203
RightHandThumb1 -24.326973 -0.000000 -32.862282
LeftUpLeg 0.657996 6.339914 0.743955
LeftLeg -6.107458 -0.000000 0.000000
LeftFoot -20.322710 24.312674 -16.631754
LeftToeBase 24.042227 -0.000000 -0.000000
RightUpLeg 0.901513 -14.056414 3.012902
RightLeg -4.446786 -0.000000 0.000000
RightFoot -22.461202 -25.571800 18.876637
RightToeBase 21.520892 -0.000000 -0.000000
3387
root 19.103753 35.658122 -25.356526 -171.008335 -6.879577 -179.590014
Spine -15.659385 -2.634923 -2.393897
Head -1.565876 -12.930474 16.210894
LeftShoulder -9.582879 -24.214364 26.110704
LeftArm -2.702420 1.880622 -8.076166
LeftForeArm 10.823050 -0.000000 -2.426264
LeftHand -4.700619 -0.000000 -11.692885
LeftHandThumb1 -26.253704 0.000000 33.147579
RightShoulder -10.039743 -14.708708 -13.605093
RightArm -0.811862 45.716706 17.780584
RightForeArm -32.625409 -0.000000 4.274858
RightHand -7.350262 -0.000000 3.115210
RightHandThumb1 -24.326973 -0.000000 -32.862282
LeftUpLeg 0.672917 6.280599 0.752696
LeftLeg -6.106246 -0.000000 0.000000
LeftFoot -20.304078 24.278946 -16.626537
LeftToeBase 24.028789 -0.000000 -0.000000
RightUpLeg 0.947434 -14.129437 3.010763
RightLeg -4.463923 -0.000000 0.000000
RightFoot -22.461611 -25.553736 18.894193
RightToeBase 21.665775 -0.000000 -0.000000
3388
root 19.105297 35.658835 -25.354501 -170.995052 -6.953416 -179.597846
Spine -15.639740 -2.686579 -2.426384
Head -1.768720 -12.961834 16.451828
LeftShoulder -9.558728 -24.258626 26.083895
LeftArm -2.690434 1.873311 -7.944866
LeftForeArm 10.735198 -0.000000 -2.393852
LeftHand -4.686815 -0.000000 -11.557666
LeftHandThumb1 -26.253704 0.000000 33.147579
RightShoulder -10.012974 -14.715264 -13.564197
RightArm -1.038397 45.545985 17.543331
RightForeArm -32.581179 0.000000 4.311184
RightHand -7.414040 -0.000000 2.906243
RightHandThumb1 -24.326973 -0.000000 -32.862282
LeftUpLeg 0.642923 6.241842 0.755356
LeftLeg -6.098252 -0.000000 0.000000
LeftFoot -20.283162 24.253608 -16.624026
LeftToeBase 24.015737 -0.000000 -0.000000
RightUpLeg 0.929883 -14.172670 3.018557
RightLeg -4.448260 -0.000000 0.000000
RightFoot -22.479746 -25.560876 18.904766
RightToeBase 21.664323 -0.000000 -0.000000
